<?xml version="1.0" encoding="UTF-8"?>
<svg id="Calque_1" data-name="Calque 1" xmlns="http://www.w3.org/2000/svg" viewBox="0 0 829.69 684.73">
  <defs>
    <style>
      .cls-1 {
        fill: #0a2540;
      }

      .cls-2 {
        fill: #fff;
      }

      .cls-3 {
        fill: none;
        stroke: #d0cde1;
        stroke-miterlimit: 10;
        stroke-width: 2px;
      }

      .cls-4 {
        fill: #99fdf4;
      }

      .cls-5 {
        fill: #090814;
      }

      .cls-6 {
        fill: #3f3d56;
      }

      .cls-7 {
        fill: #ffb9b9;
      }

      .cls-8 {
        fill: #f2f2f2;
      }

      .cls-9 {
        fill: #ccc;
      }
    </style>
  </defs>
  <g id="Group_204" data-name="Group 204">
    <path id="Path_3200-340" data-name="Path 3200-340" class="cls-7" d="M320.53,193.96s13.86,104.44-7.46,116.17,126.82,12.79,126.82,12.79c0,0-33.04-90.59-18.12-118.3l-101.25-10.65Z"/>
    <circle id="Ellipse_512" data-name="Ellipse 512" class="cls-7" cx="375.42" cy="175.93" r="73.54"/>
    <path id="Path_3201-341" data-name="Path 3201-341" class="cls-4" d="M548.07,323.44l-12.32,56.1-26.05,118.69-.78,6.5-8.99,75.25-5.98,49.99-4.01,33.58c-24.38,12.53-42.05,21.18-42.05,21.18,0,0-1.52-7.62-3.97-17.37-17.11,5.13-48.77,13.64-75.6,15.34,9.77,10.89-141.12-266.12-146.91-303.16-4.66-29.81-8.16-55-8.9-60.36-.1-.7-.15-1.06-.15-1.06l112.43-49.68c7.99,18.53,45.3,24.1,45.3,24.1,30.91-2.13,55.14-18.43,55.14-18.43l122.84,49.33Z"/>
    <path id="Path_3203-342" data-name="Path 3203-342" class="cls-5" d="M314.25,106.37l-13.75-5.5s28.75-31.65,68.75-28.9l-11.25-12.39s27.5-11.01,52.5,17.89c13.14,15.19,28.35,33.05,37.83,53.16h14.72l-6.15,13.53,21.51,13.53-22.08-2.43c1.32,7.41,1.52,14.98.6,22.45-.95,7.47-4.76,14.29-10.63,19h0s-17.05-35.3-17.05-40.8v13.76s-13.75-12.38-13.75-20.64l-7.5,9.63-3.75-15.14-46.25,15.14,7.5-12.38-28.75,4.13,11.25-15.14s-32.5,17.89-33.75,33.03-10.76,29.48-10.76,29.48c0,0-25.49-70.77,10.76-91.41Z"/>
    <path id="Path_3204-343" data-name="Path 3204-343" class="cls-4" d="M628,581.35c-7.49,8.12-26.05,20.35-48.55,33.59-8.37,4.92-17.28,9.99-26.37,15.03-21.69,12.03-44.4,23.95-63.14,33.58-24.38,12.53-42.05,21.18-42.05,21.18,0,0-1.52-7.62-3.97-17.37-3.28-13.05-8.22-29.92-13.37-37.39-.18-.26-.36-.5-.54-.74-1.5-1.97-3.01-3.12-4.5-3.12l74.42-46.13,32.16-19.94-23.17-55.31-29.06-69.38,17.54-55.81,17.63-56.1h33.04s10.94,23.88,24.93,57.18c2.09,4.98,4.25,10.17,6.45,15.53,28.78,70,64.66,167.74,48.55,185.2Z"/>
    <path id="Path_3206-344" data-name="Path 3206-344" class="cls-4" d="M295.49,629.31c-2.71-.01-5.42.21-8.1.66-22.99,3.95-29.77,24.76-31.7,38.7-.62,4.26-.85,8.56-.7,12.86l-20.31-15.62-7.4-5.69c-17.81-6.21-33.68-17.24-47.44-30.25-11.94-11.49-22.64-24.18-31.95-37.89-9.27-13.51-17.53-27.68-24.72-42.4-4.06-8.32-4.22-18.01-.43-26.45l25.15-56.05,36.76-81.92c.27-1.95.56-3.86.89-5.72,7.29-41.8,26.82-60.36,26.82-60.36h14.92l9.98,60.36,12.4,74.99-8.69,28.34-20.08,65.45,19.19,20.84,55.41,60.15Z"/>
    <path id="Path_3208-345" data-name="Path 3208-345" class="cls-5" d="M603.15,663.38v6.07c0,1.67-.31,3.32-.91,4.87-.27.69-.59,1.36-.97,2-2.42,4.07-6.81,6.56-11.55,6.56H143.17c-4.74,0-9.13-2.49-11.55-6.56-.38-.64-.7-1.31-.97-2-.6-1.55-.91-3.2-.91-4.87v-6.07c0-7.41,6.01-13.43,13.42-13.43h25.75v-2.83c0-.31.25-.56.56-.56h13.43c.31,0,.56.25.56.56h0v2.83h8.39v-2.83c0-.31.25-.56.56-.56h13.43c.31,0,.56.25.56.56h0v2.83h8.4v-2.83c0-.31.25-.56.56-.56h13.43c.31,0,.56.25.56.56h0v2.83h8.39v-2.83c0-.31.25-.56.56-.56h13.43c.31,0,.56.25.56.56h0v2.83h8.39v-2.83c0-.31.25-.56.56-.56h13.43c.31,0,.56.25.56.56h0v2.83h8.4v-2.83c0-.31.25-.56.56-.56h13.43c.31,0,.56.25.56.56h0v2.83h8.39v-2.83c0-.31.25-.56.56-.56h105.2c.31,0,.56.25.56.56h0v2.83h8.4v-2.83c0-.31.25-.56.56-.56h13.43c.31,0,.56.25.56.56v2.83h8.39v-2.83c0-.31.25-.56.56-.56h13.43c.31,0,.56.25.56.56h0v2.83h8.39v-2.83c0-.31.25-.56.56-.56h13.43c.31,0,.56.25.56.56h0v2.83h8.4v-2.83c0-.31.25-.56.56-.56h13.43c.31,0,.55.25.55.56v2.83h8.4v-2.83c0-.31.25-.56.56-.56h13.43c.31,0,.56.25.56.56h0v2.83h8.39v-2.83c0-.31.25-.56.56-.56h13.43c.31,0,.56.25.56.56h0v2.83h39.17c7.41,0,13.43,6.01,13.43,13.42h0s0,0,0,0Z"/>
    <rect id="Rectangle_742" data-name="Rectangle 742" class="cls-9" y="682.73" width="733" height="2"/>
    <path id="Path_3209-346" data-name="Path 3209-346" class="cls-1" d="M567.19,407.74h-166.44v-3.43h-75.47v3.43h-167.13c-6.22,0-11.26,5.04-11.26,11.26v227.91c0,6.22,5.04,11.26,11.26,11.26h409.04c6.22,0,11.26-5.04,11.26-11.26v-227.91c0-6.22-5.04-11.26-11.26-11.26h0Z"/>
    <circle id="Ellipse_513" data-name="Ellipse 513" class="cls-3" cx="363" cy="487.32" r="25"/>
    <circle id="Ellipse_514" data-name="Ellipse 514" class="cls-8" cx="355" cy="496.32" r="25"/>
    <circle id="Ellipse_515" data-name="Ellipse 515" class="cls-8" cx="90.29" cy="152.1" r="44.48"/>
    <path id="Path_3212-347" data-name="Path 3212-347" class="cls-1" d="M105.79,99.24c-4.03-.51-8.1-.51-12.13,0-18.32,2.41-33.56,15.26-39.02,32.91-1.22,3.94-1.91,8.02-2.05,12.14-.02.57-.03,1.15-.03,1.73.03,26.04,21.13,47.15,47.17,47.17,1,0,2.01-.03,3-.09,2.33-.15,4.64-.47,6.91-.96,25.47-5.48,41.68-30.57,36.2-56.04-4.2-19.53-20.24-34.3-40.05-36.87h0ZM114.49,189.42h0c-3.8,1.3-7.75,2.08-11.76,2.34-.99.07-1.99.1-3,.1-25.29-.03-45.79-20.53-45.82-45.82,0-.58.01-1.16.03-1.73.96-25.29,22.24-45.01,47.53-44.05,25.29.96,45.01,22.24,44.05,47.53-.72,18.97-13.06,35.53-31.03,41.64h0Z"/>
    <rect id="Rectangle_745" data-name="Rectangle 745" class="cls-1" x="99.05" y="102.9" width="1.35" height="9.43"/>
    <rect id="Rectangle_746" data-name="Rectangle 746" class="cls-1" x="71.89" y="114.15" width="1.35" height="9.43" transform="translate(-62.8 86.12) rotate(-45)"/>
    <rect id="Rectangle_747" data-name="Rectangle 747" class="cls-1" x="56.59" y="145.36" width="9.43" height="1.35"/>
    <rect id="Rectangle_748" data-name="Rectangle 748" class="cls-1" x="67.84" y="172.52" width="9.43" height="1.35" transform="translate(-101.21 102.03) rotate(-45)"/>
    <rect id="Rectangle_749" data-name="Rectangle 749" class="cls-1" x="122.16" y="118.19" width="9.43" height="1.35" transform="translate(-46.89 124.53) rotate(-45)"/>
    <rect id="Rectangle_750" data-name="Rectangle 750" class="cls-1" x="133.41" y="145.36" width="9.43" height="1.35"/>
    <rect id="Rectangle_751" data-name="Rectangle 751" class="cls-1" x="126.21" y="168.47" width="1.35" height="9.43" transform="translate(-85.3 140.45) rotate(-45)"/>
    <rect id="Rectangle_752" data-name="Rectangle 752" class="cls-1" x="99.05" y="179.72" width="1.35" height="9.43"/>
    <path id="Path_3213-348" data-name="Path 3213-348" class="cls-1" d="M101.74,143.33c-1.2-.9-2.85-.9-4.04,0-.4.3-.73.69-.96,1.13-.86,1.65-.23,3.69,1.42,4.55,1.65.86,3.69.23,4.55-1.42.77-1.46.36-3.27-.96-4.26ZM99.72,148.05c-1.12,0-2.02-.91-2.02-2.02,0-.41.13-.81.36-1.15.63-.92,1.89-1.15,2.81-.52.92.63,1.15,1.89.52,2.81-.38.55-1,.87-1.66.87h0Z"/>
    <rect id="Rectangle_753" data-name="Rectangle 753" class="cls-1" x="93.65" y="87.4" width="12.13" height="12.13"/>
    <ellipse id="Ellipse_516" data-name="Ellipse 516" class="cls-1" cx="99.72" cy="83.7" rx="16.17" ry="5.73"/>
    <rect id="Rectangle_754" data-name="Rectangle 754" class="cls-1" x="97.7" y="120.42" width="4.04" height="22.91"/>
    <path id="Path_3173-349" data-name="Path 3173-349" class="cls-8" d="M611.02,168.01c-3.28-13.77-2.73-27.34,2.88-40.63.12-1.71,1.61-3,3.32-2.88l30.68,2.18c1.71.12,3,1.61,2.88,3.32l-2.88,40.63c-.12,1.71-1.61,3-3.32,2.88l-30.68-2.18c-1.71-.12-3.01-1.61-2.89-3.32Z"/>
    <path id="Path_3174-350" data-name="Path 3174-350" class="cls-2" d="M614.24,155.9c-2.62-6.79-.95-16.12,1.85-26.12.11-1.6,1.51-2.81,3.11-2.7l26.37,1.87c1.6.11,2.81,1.51,2.7,3.11l-2.57,36.15c-.12,1.6-1.51,2.81-3.11,2.7l-16.34-1.16c-7.14-.51-12.52-6.71-12.02-13.86h0Z"/>
    <path id="Path_3175-351" data-name="Path 3175-351" class="cls-4" d="M632.5,157.67l-2.42-.42c.37-.88.59-1.81.63-2.76.38-5.08.42-10.22.62-15.31-.02-.53-.46-.95-.99-.94-.24,0-.46.1-.64.26l-6.07,5.03c-.95.78.41,2.13,1.35,1.35l4.36-3.61c-.13,3.34-.27,6.68-.4,10.02-.06,1.6.13,3.55-.53,5.05-.09.2-.21.39-.35.57l-2.67-.46c-.64-.11-1.46.42-1.17,1.17.62,1.49,2.33,2.2,3.83,1.58.05-.02.1-.04.15-.07.14-.06.27-.13.4-.21l3.4.58c1.19.2,1.71-1.63.5-1.84Z"/>
    <path id="Path_3176-352" data-name="Path 3176-352" class="cls-8" d="M763.23,219.68c-3.09-12.97-2.57-25.75,2.72-38.27.12-1.61,1.52-2.83,3.13-2.71l28.9,2.05c1.61.12,2.83,1.52,2.71,3.13l-2.71,38.27c-.12,1.61-1.52,2.83-3.13,2.71l-28.9-2.05c-1.61-.12-2.83-1.52-2.71-3.13Z"/>
    <path id="Path_3177-353" data-name="Path 3177-353" class="cls-2" d="M766.26,208.28c-2.47-6.39-.89-15.18,1.75-24.6.11-1.51,1.42-2.65,2.93-2.54l24.84,1.76c1.51.11,2.65,1.42,2.54,2.93l-2.42,34.05c-.11,1.51-1.42,2.65-2.93,2.54l-15.39-1.09c-6.73-.48-11.79-6.32-11.32-13.05Z"/>
    <path id="Path_3178-354" data-name="Path 3178-354" class="cls-4" d="M782.48,201.79c.33-.15.64-.34.93-.57,1.57-1.3,2.23-3.4,1.69-5.36-1.17-4.28-6.29-4.31-9.82-3.79-1.14.17-.66,1.9.48,1.73,2.38-.35,6.12-.63,7.4,1.97.6,1.25.38,2.74-.55,3.77-.54.54-1.26.88-2.02.96-.74-.32-1.55-.47-2.35-.44-.83.04-1.3,1.25-.45,1.67.75.37,1.57.57,2.4.57,1.41.68,2.28,2.15,2.2,3.71-.33,2.2-2.39,3.71-4.59,3.38h-.02c-1.13-.23-1.61,1.51-.48,1.73,3.17.6,6.23-1.49,6.82-4.66.02-.08.03-.17.04-.25.15-1.66-.47-3.29-1.67-4.44Z"/>
    <path id="Path_3179-355" data-name="Path 3179-355" class="cls-8" d="M763.58,64.24c-3.72-15.62-3.1-30.99,3.27-46.06.14-1.94,1.82-3.4,3.77-3.27l34.79,2.47c1.94.14,3.4,1.82,3.27,3.77l-3.27,46.06c-.14,1.94-1.82,3.4-3.77,3.27l-34.78-2.47c-1.94-.14-3.4-1.82-3.27-3.76Z"/>
    <path id="Path_3180-356" data-name="Path 3180-356" class="cls-2" d="M767.24,50.51c-2.97-7.7-1.07-18.28,2.1-29.61.13-1.82,1.71-3.19,3.53-3.06l29.9,2.12c1.82.13,3.19,1.71,3.06,3.53l-2.91,40.99c-.13,1.82-1.71,3.19-3.53,3.06l-18.52-1.31c-8.1-.58-14.2-7.61-13.63-15.71Z"/>
    <path id="Path_3181-357" data-name="Path 3181-357" class="cls-4" d="M785.63,29.89c-2.86-.82-5.84.84-6.66,3.7-.07.26-.13.53-.16.8-.39,3.56,3.44,6.37,6.75,5.4.57-.18.89-.79.71-1.36-.17-.54-.73-.86-1.29-.73-2.43.71-5.02-1.92-3.63-4.26.65-1.16,1.95-1.8,3.27-1.6,1.11.31,2,1.12,2.41,2.19,1.19,2.69-.22,5.42-2.1,7.37-1.07,1.11-2.33,1.98-3.48,3-1.14.86-1.86,2.16-1.98,3.57.06,1.61,1.01,3.05,2.46,3.74,1.84.95,3.94.65,5.91.33,1.37-.22.79-2.31-.58-2.09-1.72.28-4.29.7-5.38-1.1-.93-1.53.99-2.88,2.03-3.69,2.63-2.05,5.29-4.7,5.68-8.18.32-2.85-1.13-6.11-3.98-7.1Z"/>
    <path id="Path_3187-358" data-name="Path 3187-358" class="cls-6" d="M506.67,140.45c12.13-3.77,25.12.31,37.33-3.17,2.81-.77,5.46-2.01,7.84-3.68,2.03-1.54,3.94-3.24,5.71-5.08,3.67-3.63,7.66-7.44,13.17-7.4,7.26.05,12.84,5.45,17.68,10.21.68.67,1.74-.38,1.05-1.05-4.45-4.38-9.25-8.99-15.58-10.3-2.84-.63-5.8-.38-8.5.71-2.34,1.06-4.48,2.52-6.32,4.32-1.95,1.79-3.75,3.73-5.72,5.49-2.06,1.88-4.44,3.38-7.02,4.43-5.59,2.23-11.73,2.5-17.68,2.43-7.47-.08-15.11-.59-22.35,1.66-.91.28-.52,1.72.4,1.44h0Z"/>
    <path id="Path_3188-359" data-name="Path 3188-359" class="cls-1" d="M591.05,121.29l3.73,6.58,1.8,3.18c.32.57.65,1.13.96,1.7.19.35.61.98.21,1.31-.35.17-.75.23-1.13.18-.66,0-1.32-.01-1.97-.02l-3.7-.04-7.65-.08c-.41,0-.74.34-.74.75,0,.41.33.74.74.74,4.44.05,8.88.14,13.32.14.77.07,1.55-.14,2.18-.6.63-.63.79-1.59.4-2.39-.44-.95-.94-1.88-1.51-2.76l-1.62-2.86-3.73-6.58c-.23-.34-.69-.44-1.03-.21-.32.21-.43.62-.25.96h0Z"/>
    <path id="Path_3192-360" data-name="Path 3192-360" class="cls-1" d="M688.81,121.85c5.84-7.92,15.82-11.34,21.84-19.11,1.4-1.77,2.48-3.76,3.2-5.9.56-1.89.97-3.83,1.23-5.79.62-3.95,1.36-8.16,4.83-10.66,4.56-3.3,10.51-2.49,15.72-1.74.32.05.61-.17.66-.48.05-.32-.17-.61-.48-.66h0c-4.78-.69-9.9-1.37-14.45.72-2.06.91-3.8,2.42-4.98,4.34-.97,1.74-1.64,3.63-1.96,5.6-.4,2.01-.62,4.05-1.05,6.06-.43,2.12-1.22,4.14-2.35,5.99-2.47,3.96-6.18,6.94-9.92,9.63-4.7,3.38-9.7,6.57-13.19,11.29-.44.6.46,1.32.91.71h0Z"/>
    <path id="Path_3193-361" data-name="Path 3193-361" class="cls-1" d="M731.64,69.52l6.9,3.09,3.34,1.49c.59.27,1.19.52,1.78.8.36.17,1.07.43.95.93-.09.34-.55.62-.81.81-.53.39-1.07.77-1.6,1.15l-3,2.16-6.21,4.47c-.33.25-.39.72-.14,1.04.24.32.7.39,1.03.16,3.6-2.59,7.24-5.15,10.81-7.78.67-.4,1.17-1.03,1.4-1.77.14-.88-.31-1.75-1.1-2.16-.92-.51-1.87-.96-2.85-1.33l-3-1.35-6.9-3.09c-.39-.14-.82.05-.96.44-.13.36.03.76.37.93h0Z"/>
    <path id="Path_3194-362" data-name="Path 3194-362" class="cls-1" d="M809.78,93.04h-49.8c-1.15,0-2.08-.92-2.08-2.07,0-1.15.92-2.08,2.07-2.08h49.81c1.15,0,2.08.92,2.08,2.07,0,1.15-.92,2.08-2.07,2.08h0Z"/>
    <path id="Path_3195-363" data-name="Path 3195-363" class="cls-1" d="M687.21,182.76c6.57,8.91,17.79,12.74,24.55,21.48,1.57,1.99,2.79,4.23,3.6,6.63.63,2.13,1.09,4.31,1.39,6.51.7,4.44,1.53,9.17,5.42,11.99,5.12,3.71,11.82,2.8,17.67,1.95.35-.06.69.19.74.54s-.19.69-.54.74h0c-5.38.78-11.13,1.54-16.25-.81-2.32-1.02-4.27-2.73-5.6-4.88-1.09-1.95-1.84-4.08-2.2-6.29-.45-2.26-.7-4.55-1.18-6.81-.48-2.38-1.37-4.66-2.64-6.73-2.78-4.45-6.94-7.8-11.15-10.83-5.28-3.8-10.91-7.38-14.83-12.69-.49-.67.52-1.48,1.02-.8h0Z"/>
    <path id="Path_3196-364" data-name="Path 3196-364" class="cls-1" d="M735.93,240.69l6.9-3.09,3.34-1.49c.59-.27,1.19-.52,1.78-.8.36-.17,1.07-.43.95-.93-.09-.34-.55-.62-.81-.81-.53-.39-1.07-.77-1.6-1.15l-3-2.16-6.21-4.47c-.33-.25-.39-.72-.14-1.04.24-.32.7-.39,1.03-.16,3.6,2.59,7.24,5.15,10.81,7.78.67.4,1.17,1.03,1.4,1.77.14.88-.31,1.75-1.1,2.16-.92.51-1.87.96-2.85,1.33l-3,1.34-6.9,3.09c-.39.14-.82-.05-.96-.44-.13-.36.03-.76.37-.93h0Z"/>
    <path id="Path_3197-365" data-name="Path 3197-365" class="cls-1" d="M801,237.02h-41.37c-.95-.02-1.71-.8-1.69-1.76.02-.92.76-1.66,1.68-1.69h41.38c.95.02,1.71.8,1.69,1.76-.02.92-.76,1.66-1.68,1.69h-.02Z"/>
    <g id="Group_201" data-name="Group 201">
      <circle id="Ellipse_44" data-name="Ellipse 44" class="cls-4" cx="811.86" cy="17.83" r="15.21"/>
      <path id="Path_395-366" data-name="Path 395-366" class="cls-4" d="M809.27,23.24c-.34-.06-.64-.24-.87-.49v-.02s-3-3.37-3-3.37c-.55-.68-.44-1.68.24-2.23.64-.52,1.57-.46,2.14.13l1.93,2.18,6.73-5.96c.66-.58,1.66-.52,2.24.14h0l-.04.04.04-.04c.58.66.52,1.66-.14,2.24l-7.92,7.01c-.37.33-.87.46-1.36.37h0Z"/>
    </g>
    <g id="Group_202" data-name="Group 202">
      <circle id="Ellipse_44-2" data-name="Ellipse 44-2" class="cls-4" cx="810.57" cy="182.42" r="16.31"/>
      <path id="Path_395-2-367" data-name="Path 395-2-367" class="cls-4" d="M807.8,188.22c-.36-.07-.69-.25-.93-.53v-.02s-3.22-3.61-3.22-3.61c-.62-.7-.56-1.78.15-2.4.7-.62,1.78-.56,2.4.15l2.07,2.34,7.22-6.39c.7-.62,1.78-.56,2.4.14,0,0,0,0,0,0h0l-.04.04.05-.04c.62.7.56,1.78-.14,2.4,0,0,0,0,0,0l-8.49,7.52c-.4.35-.94.5-1.46.39h0Z"/>
    </g>
    <g id="Group_203" data-name="Group 203">
      <circle id="Ellipse_44-3" data-name="Ellipse 44-3" class="cls-4" cx="653.49" cy="127.92" r="17.31"/>
      <path id="Path_395-3-368" data-name="Path 395-3-368" class="cls-4" d="M650.54,134.07c-.38-.07-.73-.27-.99-.56l-.02-.02-3.4-3.83c-.66-.75-.59-1.89.15-2.55.75-.66,1.89-.59,2.55.15l2.2,2.49,7.66-6.79c.75-.66,1.88-.59,2.55.15h0l-.05.05.05-.05c.66.75.59,1.89-.16,2.55l-9.01,7.98c-.42.37-.99.53-1.55.42h0Z"/>
    </g>
  </g>
</svg>